<svg width="120" height="27" viewBox="0 0 120 27" fill="none" xmlns="http://www.w3.org/2000/svg">
<path d="M15.1543 25.0297V22.3903L17.4921 21.9378V6.17637L15.1543 5.72389V3.06934H17.4921H24.0078L29.9957 18.3783H30.0862L35.8779 3.06934H44.7465V5.72389L42.3936 6.17637V21.9378L44.7465 22.3903V25.0297H35.6517V22.3903L38.1101 21.9378V17.7297L38.1856 7.82038L38.0951 7.8053L31.5341 24.7281H28.2008L21.489 7.94104L21.3985 7.95613L21.6549 17.2772V21.9378L24.2492 22.3903V25.0297H15.1543Z" fill="#343434"/>
<path d="M46.3151 25.0297V22.3903L48.6529 21.9378V6.17637L46.3151 5.72389V3.06934H63.3585V8.99683H59.98L59.784 6.46294H53.0571V11.9832H60.4928V15.3768H53.0571V21.6512H60.1459L60.342 19.0268H63.6904V25.0297H46.3151Z" fill="#343434"/>
<path d="M71.3976 25.0297V22.3903L73.7505 21.9378V6.46294H69.7536L69.5123 9.08733H66.179V3.06934H85.7714V9.08733H82.4231L82.1817 6.46294H78.1547V21.9378L80.5226 22.3903V25.0297H71.3976Z" fill="#343434"/>
<path d="M84.3687 25.0297V22.3903L85.9373 22.164L92.9206 3.06934H97.4303L104.368 22.164L105.937 22.3903V25.0297H98.4559V22.3903L99.9793 22.1188L99.014 19.1022H91.2917L90.3264 22.1188L91.8497 22.3903V25.0297H84.3687ZM92.3324 15.8595H97.9733L95.4092 8.33319L95.1981 7.66955H95.1076L94.8814 8.37844L92.3324 15.8595Z" fill="#343434"/>
<path fill-rule="evenodd" clip-rule="evenodd" d="M117.122 13.4461L110.975 1.15118L113.277 0L120 13.4461L113.277 26.8923L110.975 25.7411L117.122 13.4461Z" fill="#4B99F5"/>
<path fill-rule="evenodd" clip-rule="evenodd" d="M2.87791 13.4464L9.02539 25.7414L6.72304 26.8926L-3.6059e-05 13.4464L6.72304 0.00028699L9.02539 1.15147L2.87791 13.4464Z" fill="#4B99F5"/>
</svg>
