<svg width="94" height="32" viewBox="0 0 94 32" fill="none" xmlns="http://www.w3.org/2000/svg">
<path d="M11.7743 25V22.9492L13.5907 22.5977V10.3516L11.7743 10V7.9375H13.5907H18.6532L23.3055 19.832H23.3758L27.8758 7.9375H34.7665V10L32.9383 10.3516V22.5977L34.7665 22.9492V25H27.7001V22.9492L29.6102 22.5977V19.3281L29.6688 11.6289L29.5985 11.6172L24.5008 24.7656H21.911L16.6962 11.7227L16.6258 11.7344L16.8251 18.9766V22.5977L18.8407 22.9492V25H11.7743ZM35.9852 25V22.9492L37.8016 22.5977V10.3516L35.9852 10V7.9375H49.2274V12.543H46.6024L46.4501 10.5742H41.2235V14.8633H47.0008V17.5H41.2235V22.375H46.7313L46.8837 20.3359H49.4852V25H35.9852ZM55.4735 25V22.9492L57.3016 22.5977V10.5742H54.1962L54.0087 12.6133H51.4188V7.9375H66.6415V12.6133H64.0399L63.8524 10.5742H60.7235V22.5977L62.5633 22.9492V25H55.4735ZM65.5516 25V22.9492L66.7704 22.7734L72.1962 7.9375H75.7001L81.0907 22.7734L82.3094 22.9492V25H76.4969V22.9492L77.6805 22.7383L76.9305 20.3945H70.9305L70.1805 22.7383L71.3641 22.9492V25H65.5516ZM71.7391 17.875H76.1219L74.1297 12.0273L73.9657 11.5117H73.8954L73.7196 12.0625L71.7391 17.875Z" fill="white"/>
<path d="M87.118 6L92.118 16L87.118 26" stroke="#4B99F5" stroke-width="2"/>
<path d="M6.11803 26L1.11803 16L6.11803 6" stroke="#4B99F5" stroke-width="2"/>
</svg>
